<?xml version="1.0" standalone="no"?>
<!DOCTYPE svg PUBLIC "-//W3C//DTD SVG 20010904//EN"
 "http://www.w3.org/TR/2001/REC-SVG-20010904/DTD/svg10.dtd">
<svg version="1.0" xmlns="http://www.w3.org/2000/svg"
 width="260.000000pt" height="260.000000pt" viewBox="0 0 260.000000 260.000000"
 preserveAspectRatio="xMidYMid meet">
<metadata>
Created by potrace 1.11, written by Peter Selinger 2001-2013
</metadata>
<g transform="translate(0.000000,260.000000) scale(0.100000,-0.100000)"
fill="#000000" stroke="none">
<path d="M1466 2584 c-101 -24 -186 -93 -186 -149 0 -18 -7 -19 -49 -4 -29 10
-34 8 -74 -27 -46 -41 -86 -104 -65 -104 6 0 0 -12 -15 -27 -31 -34 -57 -92
-57 -131 0 -24 -18 -104 -36 -164 -3 -12 0 -18 9 -18 12 0 18 -27 27 -120 7
-66 17 -120 21 -120 5 0 9 -13 9 -29 0 -28 19 -86 85 -256 23 -60 26 -80 22
-143 l-6 -73 62 7 c34 4 64 8 67 11 11 10 10 136 -2 217 -14 87 -15 90 -44 98
-44 11 -80 54 -109 131 -31 84 -31 91 0 105 32 15 40 0 31 -62 -8 -49 -2 -57
62 -79 46 -16 49 -13 28 30 -26 49 -46 127 -36 137 15 15 21 3 30 -65 7 -50
14 -67 37 -85 15 -13 41 -23 56 -24 l29 0 -26 30 c-25 30 -25 33 -22 173 3
155 10 179 65 231 19 18 31 40 31 55 0 18 23 51 74 105 l73 80 109 6 109 6 65
-39 c73 -44 154 -118 207 -190 32 -43 37 -60 49 -150 17 -125 37 -196 50 -176
51 83 56 149 22 317 -57 287 -195 449 -423 498 -78 17 -204 16 -279 -2z"/>
<path d="M1101 1059 c-94 -108 -139 -153 -181 -177 -132 -76 -424 -262 -488
-309 -102 -76 -141 -118 -168 -178 -27 -58 -54 -222 -54 -327 l0 -68 896 0
897 0 -7 42 c-10 65 -55 242 -86 343 -42 138 -55 211 -41 241 12 27 -2 68 -33
94 -18 14 -79 8 -102 -11 -25 -21 -45 -80 -38 -115 3 -18 7 -77 9 -131 5 -133
10 -402 9 -400 -1 1 -33 70 -72 152 -89 192 -194 365 -435 718 -69 100 -74
115 -57 148 19 35 -11 21 -49 -22z"/>
<path d="M1925 798 c-5 -43 -1 -66 20 -123 15 -38 40 -117 55 -175 16 -58 33
-119 38 -137 6 -17 8 -33 6 -35 -2 -3 3 -38 10 -79 8 -41 17 -113 21 -162 l7
-87 149 0 149 0 0 28 c-1 163 -41 490 -68 541 -22 44 -339 281 -375 281 -3 0
-8 -24 -12 -52z"/>
</g>
</svg>
