<?xml version="1.0" standalone="no"?>
<!DOCTYPE svg PUBLIC "-//W3C//DTD SVG 20010904//EN"
 "http://www.w3.org/TR/2001/REC-SVG-20010904/DTD/svg10.dtd">
<svg version="1.0" xmlns="http://www.w3.org/2000/svg"
 width="260.000000pt" height="260.000000pt" viewBox="0 0 260.000000 260.000000"
 preserveAspectRatio="xMidYMid meet">
<metadata>
Created by potrace 1.11, written by Peter Selinger 2001-2013
</metadata>
<g transform="translate(0.000000,260.000000) scale(0.100000,-0.100000)"
fill="#000000" stroke="none">
<path d="M1469 2582 c-94 -25 -166 -74 -181 -124 -12 -41 -13 -42 -79 -22 -23
7 -122 -101 -115 -124 4 -12 -2 -26 -15 -38 -30 -27 -50 -70 -55 -118 -5 -55
-20 -124 -33 -159 -14 -36 -14 -37 4 -37 8 0 15 -3 16 -7 0 -5 2 -17 4 -28 1
-11 6 -57 9 -103 4 -46 11 -91 15 -100 5 -9 17 -46 26 -82 9 -36 35 -110 57
-165 38 -94 40 -105 36 -178 l-5 -79 31 7 c17 3 45 8 61 9 26 3 31 8 39 45 6
28 5 72 -4 129 -18 125 -22 135 -57 144 -36 9 -71 53 -101 127 -30 74 -29 97
9 116 l30 16 -2 -66 c-2 -70 12 -94 57 -95 11 0 25 -5 32 -12 16 -16 15 -2 -2
25 -18 28 -51 146 -43 154 18 17 35 -10 42 -67 6 -53 11 -64 39 -85 51 -39 90
-30 46 10 -18 16 -19 31 -19 163 0 157 6 180 59 237 15 17 30 43 34 59 7 28
127 167 156 180 8 4 58 10 112 13 l97 6 73 -43 c84 -49 131 -91 195 -173 39
-51 46 -67 55 -130 13 -97 36 -199 48 -211 6 -6 12 -2 15 10 4 10 14 32 22 48
32 58 -6 308 -67 442 -60 132 -143 223 -245 269 -124 55 -273 69 -396 37z"/>
<path d="M1118 1078 c-8 -7 -34 -38 -56 -69 -48 -66 -85 -97 -207 -169 -185
-111 -362 -225 -436 -280 -141 -108 -171 -159 -194 -333 -8 -65 -15 -143 -15
-173 l0 -54 761 0 760 0 -7 23 c-23 75 -172 367 -258 505 -146 235 -154 247
-232 357 -93 130 -110 163 -95 187 13 21 2 24 -21 6z"/>
<path d="M1928 794 c-2 -42 3 -71 20 -113 13 -31 34 -100 48 -155 14 -54 29
-109 35 -123 9 -23 41 -230 54 -345 l6 -58 145 0 c79 0 144 3 144 8 0 4 -5 70
-10 147 -15 211 -39 375 -62 415 -24 44 -339 280 -373 280 -2 0 -5 -25 -7 -56z"/>
</g>
</svg>
