<?xml version="1.0" standalone="no"?>
<!DOCTYPE svg PUBLIC "-//W3C//DTD SVG 20010904//EN"
 "http://www.w3.org/TR/2001/REC-SVG-20010904/DTD/svg10.dtd">
<svg version="1.0" xmlns="http://www.w3.org/2000/svg"
 width="260.000000pt" height="260.000000pt" viewBox="0 0 260.000000 260.000000"
 preserveAspectRatio="xMidYMid meet">
<metadata>
Created by potrace 1.11, written by Peter Selinger 2001-2013
</metadata>
<g transform="translate(0.000000,260.000000) scale(0.100000,-0.100000)"
fill="#000000" stroke="none">
<path d="M1528 2595 c-2 -2 -21 -6 -43 -9 -51 -8 -135 -49 -168 -82 -14 -14
-29 -39 -32 -55 -7 -33 -9 -33 -54 -18 -31 11 -35 9 -78 -32 -47 -46 -95 -120
-58 -89 17 14 17 13 7 -6 -6 -11 -18 -27 -27 -34 -25 -21 -46 -68 -51 -114 -5
-55 -20 -124 -33 -159 -14 -36 -14 -37 4 -37 8 0 15 -3 16 -7 0 -5 2 -21 4
-38 2 -16 6 -64 10 -105 4 -41 10 -79 15 -85 4 -5 11 -28 15 -50 9 -53 30
-114 70 -210 35 -83 45 -149 30 -214 -7 -34 -7 -34 23 -28 l29 6 -26 -64 c-15
-37 -35 -69 -48 -76 -12 -6 -35 -30 -51 -53 -53 -73 -105 -121 -182 -168 -506
-308 -583 -366 -636 -473 -26 -55 -53 -221 -54 -332 l0 -63 1086 0 1086 0 -6
78 c-3 42 -8 111 -11 152 -10 148 -36 304 -56 340 -20 36 -265 225 -341 264
-36 18 -38 22 -38 65 0 65 -15 112 -54 169 -30 43 -33 54 -29 96 5 37 11 49
28 56 55 21 144 127 187 224 33 71 78 230 78 273 0 24 4 51 9 61 4 9 15 31 23
47 22 45 22 127 -2 250 -34 174 -103 314 -199 403 -76 70 -235 122 -374 121
-36 -1 -67 -2 -69 -4z"/>
</g>
</svg>
